<svg id="Layer_1" data-name="Layer 1" xmlns="http://www.w3.org/2000/svg" viewBox="0 0 66.38 55.32"><defs><style>.cls-1{fill:#fff;}</style></defs><title>icon</title><path class="cls-1" d="M714,400.27H653.13a2.81,2.81,0,0,0-2.77,2.77v5.53a2.81,2.81,0,0,0,2.77,2.77H714a2.8,2.8,0,0,0,2.76-2.77V403a2.81,2.81,0,0,0-2.76-2.77Z" transform="translate(-650.37 -356.02)"/><path class="cls-1" d="M715.93,356.84A2.66,2.66,0,0,0,714,356H653.13a2.81,2.81,0,0,0-2.77,2.76v5.53a2.81,2.81,0,0,0,2.77,2.77H714a2.81,2.81,0,0,0,2.76-2.77v-5.53A2.66,2.66,0,0,0,715.93,356.84Z" transform="translate(-650.37 -356.02)"/><path class="cls-1" d="M714,378.14H653.13a2.81,2.81,0,0,0-2.77,2.77v5.53a2.81,2.81,0,0,0,2.77,2.77H714a2.8,2.8,0,0,0,2.76-2.77v-5.53a2.8,2.8,0,0,0-2.76-2.77Z" transform="translate(-650.37 -356.02)"/></svg>